<?xml version="1.0" encoding="UTF-8" standalone="no"?>
<!DOCTYPE svg PUBLIC "-//W3C//DTD SVG 20010904//EN"
              "http://www.w3.org/TR/2001/REC-SVG-20010904/DTD/svg10.dtd">

<svg xmlns="http://www.w3.org/2000/svg"
     width="192" height="192"
     viewBox="0 0 192 192">
  <path id="JB"
        stroke-linecap="round"
        d="M 82.14,155.25
           C 92.25,129.00 100.44,63.45 118.14,49.50
             135.81,35.55 147.61,50.12 146.00,70.12
             144.39,90.12 111.88,101.25 111.00,96.75
             110.12,92.25 157.50,93.75 144.75,122.25
             132.00,150.75 85.72,149.40 89.50,129.12M 60.39,112.50
           C 50.64,108.75 29.25,100.11 33.39,78.00
             37.53,55.89 58.53,43.11 72.03,42.75
             85.53,42.39 97.53,58.50 79.53,91.50
             61.53,124.50 58.14,130.50 48.75,145.11
             40.58,155.72 38.19,146.19 45.09,134.85
             48.61,129.06 54.75,123.25 63.39,118.50
             72.03,113.75 83.62,108.50 84.75,106.12" />
    <use href="#JB" stroke="gray" fill="gray" stroke-width="40" />
    <use href="#JB" stroke="black" fill="none" stroke-width="14" />
</svg>
